# xmcd CD database file
#
# Track frame offsets:
#	150
#	14575
#	30700
#	42643
#	65287
#	85302
#	98259
#	123116
#	136245
#	150381
#	168903
#	183369
#	198597
#	222935
#
# Disc length: 3161 seconds
#
# Revision: 0
# Processed by: cddbd v1.5.1PL0 Copyright (c) Steve Scherf et al.
# Submitted via: CDex 1.51
#
DISCID=b30c570e
DTITLE=Velvetone - Switchback Ride
DYEAR=2004
DGENRE=Blues
TTITLE0=Leave Me Cryin'
TTITLE1=What The Hell
TTITLE2=Cursed (My Senses)
TTITLE3=Just To Satisfy You
TTITLE4=What Did I Do
TTITLE5=Rosalee
TTITLE6=Voodoo Love
TTITLE7=It's Worth Anything
TTITLE8=Number Nine Train
TTITLE9=Welcome To The Pleasuredrome
TTITLE10=Git To Gittin' Baby
TTITLE11=Shiva's Little Brother
TTITLE12=Strange Times
TTITLE13=Allons à Lafayette
EXTD=YEAR: 2004
EXTT0=
EXTT1=
EXTT2=
EXTT3=
EXTT4=
EXTT5=
EXTT6=
EXTT7=
EXTT8=
EXTT9=
EXTT10=
EXTT11=
EXTT12=
EXTT13=
PLAYORDER=
